<?xml version="1.0" encoding="utf-8"?>
<!-- Generator: Adobe Illustrator 21.1.0, SVG Export Plug-In . SVG Version: 6.00 Build 0)  -->
<svg version="1.1" id="レイヤー_1" xmlns="http://www.w3.org/2000/svg" xmlns:xlink="http://www.w3.org/1999/xlink" x="0px"
	 y="0px" viewBox="0 0 841.9 595.3" style="enable-background:new 0 0 841.9 595.3;" xml:space="preserve">
<style type="text/css">
	.st0{fill:#E2007D;}
</style>
<path class="st0" d="M450.8,291.1l-7.8-6.3c0,0-6.5-20-8.1-24c-1.6-4-6.8-4.7-6.8-4.7H399h-0.4h-29.2c0,0-5.2,0.7-6.8,4.7
	c-1.6,4-8.1,24-8.1,24l-7.8,6.3c0,0-2.4,1.4-2.4,5.4c0,3.9,0,26,0,26s0.9,6.6,5.5,6.6c4.6,0,5.9,0,5.9,0v7.9c0,0-0.3,2.9,2.9,2.9
	c3.1,0,10.4,0,10.4,0s2.7,0,2.7-2.9s0-8.3,0-8.3h26.9h0.4h26.9c0,0,0,5.5,0,8.3s2.7,2.9,2.7,2.9s7.3,0,10.4,0c3.1,0,2.9-2.9,2.9-2.9
	v-7.9c0,0,1.3,0,5.9,0c4.6,0,5.5-6.6,5.5-6.6s0-22.1,0-26C453.2,292.5,450.8,291.1,450.8,291.1z M362.7,315.4
	c-4.5,0-8.1-3.6-8.1-8.1c0-4.5,3.6-8.1,8.1-8.1c4.5,0,8.1,3.6,8.1,8.1C370.8,311.8,367.2,315.4,362.7,315.4z M409.2,321.9H399h-0.4
	h-10.2v-8.3l10.3-0.1l10.3,0.1V321.9z M399.2,285h-0.7h-29.3c0,0-4.8,0.1-4.2-4.4l4-13.4c0,0,2.1-4.3,5.5-4.3h24.1h0.4h24.1
	c3.4,0,5.5,4.3,5.5,4.3l4,13.4c0.7,4.6-4.2,4.4-4.2,4.4H399.2z M435,315.4c-4.5,0-8.1-3.6-8.1-8.1c0-4.5,3.6-8.1,8.1-8.1
	c4.5,0,8.1,3.6,8.1,8.1C443,311.8,439.4,315.4,435,315.4z"/>
</svg>
